<mxfile host="app.diagrams.net" modified="2023-06-14T16:15:16.312Z" agent="Mozilla/5.0 (Windows NT 10.0; Win64; x64; rv:109.0) Gecko/20100101 Firefox/114.0" etag="lb_mzXATUBhO73R-5KmW" version="21.3.8" type="github">
  <diagram name="Page-1" id="R5tvJFyx053V0mVQBueV">
    <mxGraphModel dx="1290" dy="538" grid="1" gridSize="10" guides="1" tooltips="1" connect="1" arrows="1" fold="1" page="1" pageScale="1" pageWidth="827" pageHeight="1169" math="0" shadow="0">
      <root>
        <mxCell id="0" />
        <mxCell id="1" parent="0" />
        <mxCell id="jKIGg_ARVKSbUAzOWyE0-13" value="Triangles" style="swimlane;fontStyle=1;align=center;verticalAlign=top;childLayout=stackLayout;horizontal=1;startSize=26;horizontalStack=0;resizeParent=1;resizeParentMax=0;resizeLast=0;collapsible=1;marginBottom=0;whiteSpace=wrap;html=1;" vertex="1" parent="1">
          <mxGeometry x="450" y="20" width="340" height="270" as="geometry" />
        </mxCell>
        <mxCell id="jKIGg_ARVKSbUAzOWyE0-14" value="&lt;div&gt;- point1 : PointPlan&lt;/div&gt;&lt;div&gt;- point2 : PointPlan&lt;/div&gt;&lt;div&gt;- point3 : PointPlan&lt;/div&gt;" style="text;strokeColor=none;fillColor=none;align=left;verticalAlign=top;spacingLeft=4;spacingRight=4;overflow=hidden;rotatable=0;points=[[0,0.5],[1,0.5]];portConstraint=eastwest;whiteSpace=wrap;html=1;" vertex="1" parent="jKIGg_ARVKSbUAzOWyE0-13">
          <mxGeometry y="26" width="340" height="54" as="geometry" />
        </mxCell>
        <mxCell id="jKIGg_ARVKSbUAzOWyE0-15" value="" style="line;strokeWidth=1;fillColor=none;align=left;verticalAlign=middle;spacingTop=-1;spacingLeft=3;spacingRight=3;rotatable=0;labelPosition=right;points=[];portConstraint=eastwest;strokeColor=inherit;" vertex="1" parent="jKIGg_ARVKSbUAzOWyE0-13">
          <mxGeometry y="80" width="340" height="8" as="geometry" />
        </mxCell>
        <mxCell id="jKIGg_ARVKSbUAzOWyE0-16" value="&lt;div&gt;+ &amp;lt;&amp;lt;Constructeur&amp;gt;&amp;gt;Triangles()&lt;/div&gt;&lt;div&gt;&lt;div&gt;+ &amp;lt;&amp;lt;Constructeur&amp;gt;&amp;gt;Triangles(PointPlan, PointPlan, PointPlan)&lt;/div&gt;&lt;div&gt;+ getPoint1() : PointPlan&lt;/div&gt;&lt;div&gt;+ getPoint2() : PointPlan&lt;/div&gt;&lt;div&gt;+ getPoint3() : PointPlan&lt;/div&gt;&lt;div&gt;+ setPoint1(PointPlan) : void&lt;/div&gt;&lt;div&gt;+ setPoint2(PointPlan) : void&lt;/div&gt;&lt;div&gt;+ setPoint3(PointPlan) : void&lt;/div&gt;&lt;div&gt;+ deplacer(int, int) : void&lt;/div&gt;&lt;div&gt;+ dessiner() : ArrayList&amp;lt;Segment&amp;gt;&lt;br&gt;&lt;/div&gt;&lt;/div&gt;&lt;div&gt;+ typeForme() : String&lt;/div&gt;&lt;div&gt;+ toString() : String&lt;br&gt;&lt;/div&gt;" style="text;strokeColor=none;fillColor=none;align=left;verticalAlign=top;spacingLeft=4;spacingRight=4;overflow=hidden;rotatable=0;points=[[0,0.5],[1,0.5]];portConstraint=eastwest;whiteSpace=wrap;html=1;" vertex="1" parent="jKIGg_ARVKSbUAzOWyE0-13">
          <mxGeometry y="88" width="340" height="182" as="geometry" />
        </mxCell>
        <mxCell id="jKIGg_ARVKSbUAzOWyE0-17" value="QuadrilatÃ¨res" style="swimlane;fontStyle=1;align=center;verticalAlign=top;childLayout=stackLayout;horizontal=1;startSize=26;horizontalStack=0;resizeParent=1;resizeParentMax=0;resizeLast=0;collapsible=1;marginBottom=0;whiteSpace=wrap;html=1;" vertex="1" parent="1">
          <mxGeometry x="180" y="320" width="360" height="280" as="geometry" />
        </mxCell>
        <mxCell id="jKIGg_ARVKSbUAzOWyE0-18" value="&lt;div&gt;- point1 : PointPlan&lt;/div&gt;&lt;div&gt;- point2 : PointPlan&lt;/div&gt;&lt;div&gt;- point3 : PointPlan&lt;/div&gt;&lt;div&gt;&lt;div&gt;- point4 : PointPlan&lt;/div&gt;&lt;/div&gt;" style="text;strokeColor=none;fillColor=none;align=left;verticalAlign=top;spacingLeft=4;spacingRight=4;overflow=hidden;rotatable=0;points=[[0,0.5],[1,0.5]];portConstraint=eastwest;whiteSpace=wrap;html=1;" vertex="1" parent="jKIGg_ARVKSbUAzOWyE0-17">
          <mxGeometry y="26" width="360" height="64" as="geometry" />
        </mxCell>
        <mxCell id="jKIGg_ARVKSbUAzOWyE0-19" value="" style="line;strokeWidth=1;fillColor=none;align=left;verticalAlign=middle;spacingTop=-1;spacingLeft=3;spacingRight=3;rotatable=0;labelPosition=right;points=[];portConstraint=eastwest;strokeColor=inherit;" vertex="1" parent="jKIGg_ARVKSbUAzOWyE0-17">
          <mxGeometry y="90" width="360" height="8" as="geometry" />
        </mxCell>
        <mxCell id="jKIGg_ARVKSbUAzOWyE0-20" value="+  &amp;lt;&amp;lt;Constructeur&amp;gt;&amp;gt;Quadrilateres()&lt;div&gt;&lt;div&gt;+ &amp;lt;&amp;lt;Constructeur&amp;gt;&amp;gt;Quadrilateres(PointPlan, PointPlan, PointPlan)&lt;/div&gt;&lt;div&gt;+ getPoint1() : PointPlan&lt;/div&gt;&lt;div&gt;+ getPoint2() : PointPlan&lt;/div&gt;&lt;div&gt;+ getPoint3() : PointPlan&lt;/div&gt;&lt;div&gt;&lt;div&gt;+ getPoint4() : PointPlan&lt;/div&gt;&lt;/div&gt;&lt;div&gt;+ setPoint1(PointPlan) : void&lt;/div&gt;&lt;div&gt;+ setPoint2(PointPlan) : void&lt;/div&gt;&lt;div&gt;+ deplacer(int, int) : void&lt;/div&gt;&lt;div&gt;+ dessiner() : ArrayList&amp;lt;Segment&amp;gt;&lt;br&gt;&lt;/div&gt;&lt;/div&gt;&lt;div&gt;+ typeForme() : String&lt;/div&gt;+ toString() : String" style="text;strokeColor=none;fillColor=none;align=left;verticalAlign=top;spacingLeft=4;spacingRight=4;overflow=hidden;rotatable=0;points=[[0,0.5],[1,0.5]];portConstraint=eastwest;whiteSpace=wrap;html=1;" vertex="1" parent="jKIGg_ARVKSbUAzOWyE0-17">
          <mxGeometry y="98" width="360" height="182" as="geometry" />
        </mxCell>
        <mxCell id="jKIGg_ARVKSbUAzOWyE0-21" value="Chapeaux" style="swimlane;fontStyle=1;align=center;verticalAlign=top;childLayout=stackLayout;horizontal=1;startSize=26;horizontalStack=0;resizeParent=1;resizeParentMax=0;resizeLast=0;collapsible=1;marginBottom=0;whiteSpace=wrap;html=1;" vertex="1" parent="1">
          <mxGeometry x="70" y="20" width="350" height="270" as="geometry" />
        </mxCell>
        <mxCell id="jKIGg_ARVKSbUAzOWyE0-22" value="&lt;div&gt;- p1 : PointPlan&lt;/div&gt;&lt;div&gt;- p2 : PointPlan&lt;/div&gt;&lt;div&gt;- p3 : PointPlan&lt;br&gt;&lt;/div&gt;" style="text;strokeColor=none;fillColor=none;align=left;verticalAlign=top;spacingLeft=4;spacingRight=4;overflow=hidden;rotatable=0;points=[[0,0.5],[1,0.5]];portConstraint=eastwest;whiteSpace=wrap;html=1;" vertex="1" parent="jKIGg_ARVKSbUAzOWyE0-21">
          <mxGeometry y="26" width="350" height="54" as="geometry" />
        </mxCell>
        <mxCell id="jKIGg_ARVKSbUAzOWyE0-23" value="" style="line;strokeWidth=1;fillColor=none;align=left;verticalAlign=middle;spacingTop=-1;spacingLeft=3;spacingRight=3;rotatable=0;labelPosition=right;points=[];portConstraint=eastwest;strokeColor=inherit;" vertex="1" parent="jKIGg_ARVKSbUAzOWyE0-21">
          <mxGeometry y="80" width="350" height="8" as="geometry" />
        </mxCell>
        <mxCell id="jKIGg_ARVKSbUAzOWyE0-24" value="&lt;div&gt;+ &amp;lt;&amp;lt;Constructeur&amp;gt;&amp;gt;Chapeaux()&lt;/div&gt;&lt;div&gt;+ &amp;lt;&amp;lt;Constructeur&amp;gt;&amp;gt;Chapeaux(PointPlan, PointPlan, PointPlan)&lt;/div&gt;&lt;div&gt;+ getPoint1() : PointPlan&lt;/div&gt;&lt;div&gt;+ getPoint2() : PointPlan&lt;/div&gt;&lt;div&gt;+ getPoint3() : PointPlan&lt;/div&gt;&lt;div&gt;+ setPoint1(PointPlan) : void&lt;br&gt;&lt;/div&gt;&lt;div&gt;+ setPoint2(PointPlan) : void&lt;br&gt;&lt;/div&gt;&lt;div&gt;+ setPoint3(PointPlan) : void&lt;br&gt;&lt;/div&gt;&lt;div&gt;+ deplacer(int, int) : void&lt;/div&gt;&lt;div&gt;+ dessiner() : ArrayList&amp;lt;Segment&amp;gt;&lt;/div&gt;&lt;div&gt;+ typeForme() : String&lt;/div&gt;&lt;div&gt;+ toString() : String&lt;br&gt;&lt;/div&gt;" style="text;strokeColor=none;fillColor=none;align=left;verticalAlign=top;spacingLeft=4;spacingRight=4;overflow=hidden;rotatable=0;points=[[0,0.5],[1,0.5]];portConstraint=eastwest;whiteSpace=wrap;html=1;" vertex="1" parent="jKIGg_ARVKSbUAzOWyE0-21">
          <mxGeometry y="88" width="350" height="182" as="geometry" />
        </mxCell>
      </root>
    </mxGraphModel>
  </diagram>
</mxfile>
